<mxfile host="app.diagrams.net" agent="Mozilla/5.0 (Windows NT 10.0; Win64; x64) AppleWebKit/537.36 (KHTML, like Gecko) Chrome/141.0.0.0 Safari/537.36" version="28.2.7">
  <diagram name="Trang-1" id="n2l8kIQzBQYOINg-zM32">
    <mxGraphModel dx="1042" dy="692" grid="1" gridSize="10" guides="1" tooltips="1" connect="1" arrows="1" fold="1" page="1" pageScale="1" pageWidth="827" pageHeight="1169" math="0" shadow="0">
      <root>
        <mxCell id="xhvXuannrQBQO4RMrvDz-0" />
        <mxCell id="xhvXuannrQBQO4RMrvDz-1" parent="xhvXuannrQBQO4RMrvDz-0" />
        <mxCell id="QgWrlgiO3IHt8RUZaehN-0" value="bắt đầu" style="ellipse;whiteSpace=wrap;html=1;" vertex="1" parent="xhvXuannrQBQO4RMrvDz-1">
          <mxGeometry x="320" y="20" width="120" height="80" as="geometry" />
        </mxCell>
        <mxCell id="QgWrlgiO3IHt8RUZaehN-1" value="" style="endArrow=classic;html=1;rounded=0;exitX=0.5;exitY=1;exitDx=0;exitDy=0;" edge="1" parent="xhvXuannrQBQO4RMrvDz-1" source="QgWrlgiO3IHt8RUZaehN-0">
          <mxGeometry width="50" height="50" relative="1" as="geometry">
            <mxPoint x="390" y="380" as="sourcePoint" />
            <mxPoint x="380" y="130" as="targetPoint" />
          </mxGeometry>
        </mxCell>
        <mxCell id="QgWrlgiO3IHt8RUZaehN-14" style="edgeStyle=orthogonalEdgeStyle;rounded=0;orthogonalLoop=1;jettySize=auto;html=1;exitX=0;exitY=0.5;exitDx=0;exitDy=0;" edge="1" parent="xhvXuannrQBQO4RMrvDz-1" source="QgWrlgiO3IHt8RUZaehN-10">
          <mxGeometry relative="1" as="geometry">
            <mxPoint x="260" y="160" as="targetPoint" />
          </mxGeometry>
        </mxCell>
        <mxCell id="QgWrlgiO3IHt8RUZaehN-15" style="edgeStyle=orthogonalEdgeStyle;rounded=0;orthogonalLoop=1;jettySize=auto;html=1;exitX=1;exitY=0.5;exitDx=0;exitDy=0;" edge="1" parent="xhvXuannrQBQO4RMrvDz-1" source="QgWrlgiO3IHt8RUZaehN-10">
          <mxGeometry relative="1" as="geometry">
            <mxPoint x="480" y="160" as="targetPoint" />
          </mxGeometry>
        </mxCell>
        <mxCell id="QgWrlgiO3IHt8RUZaehN-10" value="nhập điểm" style="shape=parallelogram;perimeter=parallelogramPerimeter;whiteSpace=wrap;html=1;fixedSize=1;" vertex="1" parent="xhvXuannrQBQO4RMrvDz-1">
          <mxGeometry x="320" y="130" width="120" height="60" as="geometry" />
        </mxCell>
        <mxCell id="QgWrlgiO3IHt8RUZaehN-18" style="edgeStyle=orthogonalEdgeStyle;rounded=0;orthogonalLoop=1;jettySize=auto;html=1;exitX=0.5;exitY=1;exitDx=0;exitDy=0;" edge="1" parent="xhvXuannrQBQO4RMrvDz-1" source="QgWrlgiO3IHt8RUZaehN-16">
          <mxGeometry relative="1" as="geometry">
            <mxPoint x="220" y="240" as="targetPoint" />
          </mxGeometry>
        </mxCell>
        <mxCell id="QgWrlgiO3IHt8RUZaehN-16" value="điểm &amp;gt;= 5" style="rhombus;whiteSpace=wrap;html=1;" vertex="1" parent="xhvXuannrQBQO4RMrvDz-1">
          <mxGeometry x="180" y="120" width="80" height="80" as="geometry" />
        </mxCell>
        <mxCell id="QgWrlgiO3IHt8RUZaehN-21" style="edgeStyle=orthogonalEdgeStyle;rounded=0;orthogonalLoop=1;jettySize=auto;html=1;exitX=0.5;exitY=1;exitDx=0;exitDy=0;entryX=0.5;entryY=0;entryDx=0;entryDy=0;" edge="1" parent="xhvXuannrQBQO4RMrvDz-1" source="QgWrlgiO3IHt8RUZaehN-17" target="QgWrlgiO3IHt8RUZaehN-20">
          <mxGeometry relative="1" as="geometry" />
        </mxCell>
        <mxCell id="QgWrlgiO3IHt8RUZaehN-17" value="điểm &amp;lt;= 5" style="rhombus;whiteSpace=wrap;html=1;" vertex="1" parent="xhvXuannrQBQO4RMrvDz-1">
          <mxGeometry x="480" y="120" width="80" height="80" as="geometry" />
        </mxCell>
        <mxCell id="QgWrlgiO3IHt8RUZaehN-19" value="đạt" style="shape=parallelogram;perimeter=parallelogramPerimeter;whiteSpace=wrap;html=1;fixedSize=1;" vertex="1" parent="xhvXuannrQBQO4RMrvDz-1">
          <mxGeometry x="160" y="240" width="120" height="60" as="geometry" />
        </mxCell>
        <mxCell id="QgWrlgiO3IHt8RUZaehN-20" value="không đạt" style="shape=parallelogram;perimeter=parallelogramPerimeter;whiteSpace=wrap;html=1;fixedSize=1;" vertex="1" parent="xhvXuannrQBQO4RMrvDz-1">
          <mxGeometry x="460" y="240" width="120" height="60" as="geometry" />
        </mxCell>
        <mxCell id="QgWrlgiO3IHt8RUZaehN-22" value="kết thúc" style="ellipse;whiteSpace=wrap;html=1;" vertex="1" parent="xhvXuannrQBQO4RMrvDz-1">
          <mxGeometry x="310" y="330" width="120" height="80" as="geometry" />
        </mxCell>
        <mxCell id="QgWrlgiO3IHt8RUZaehN-23" style="edgeStyle=orthogonalEdgeStyle;rounded=0;orthogonalLoop=1;jettySize=auto;html=1;exitX=1;exitY=0.5;exitDx=0;exitDy=0;entryX=0;entryY=0.375;entryDx=0;entryDy=0;entryPerimeter=0;" edge="1" parent="xhvXuannrQBQO4RMrvDz-1" source="QgWrlgiO3IHt8RUZaehN-19" target="QgWrlgiO3IHt8RUZaehN-22">
          <mxGeometry relative="1" as="geometry" />
        </mxCell>
        <mxCell id="QgWrlgiO3IHt8RUZaehN-26" style="edgeStyle=orthogonalEdgeStyle;rounded=0;orthogonalLoop=1;jettySize=auto;html=1;exitX=0.5;exitY=1;exitDx=0;exitDy=0;entryX=1;entryY=0.398;entryDx=0;entryDy=0;entryPerimeter=0;" edge="1" parent="xhvXuannrQBQO4RMrvDz-1" source="QgWrlgiO3IHt8RUZaehN-20" target="QgWrlgiO3IHt8RUZaehN-22">
          <mxGeometry relative="1" as="geometry" />
        </mxCell>
      </root>
    </mxGraphModel>
  </diagram>
</mxfile>
